<svg xmlns="http://www.w3.org/2000/svg" viewBox="0 0 80 80" fill="none">
  <!-- Background circle -->
  <circle cx="40" cy="40" r="38" fill="#f7f3ef" stroke="#e8d5c8" stroke-width="1.5"/>

  <!-- Heart body -->
  <path d="M40 58 C40 58 18 45 18 30 C18 22.5 24 17 30.5 17 C34.5 17 38 19.5 40 23 C42 19.5 45.5 17 49.5 17 C56 17 62 22.5 62 30 C62 45 40 58 40 58Z"
        fill="#e8a0a8"/>

  <!-- Stars / sparkles -->
  <circle cx="22" cy="20" r="2" fill="#f5c5a3"/>
  <circle cx="58" cy="20" r="1.5" fill="#f5c5a3"/>
  <circle cx="62" cy="34" r="1.5" fill="#c8a0bc"/>

  <!-- Baby face inside heart -->
  <circle cx="40" cy="33" r="9" fill="#fce8d0"/>
  <!-- Eyes -->
  <circle cx="37" cy="31" r="1.3" fill="#7a5c4e"/>
  <circle cx="43" cy="31" r="1.3" fill="#7a5c4e"/>
  <!-- Smile -->
  <path d="M37 35 Q40 38 43 35" stroke="#c08890" stroke-width="1.2" stroke-linecap="round" fill="none"/>
  <!-- Cheeks -->
  <ellipse cx="35" cy="34" rx="2" ry="1.2" fill="#f0b0b0" opacity="0.6"/>
  <ellipse cx="45" cy="34" rx="2" ry="1.2" fill="#f0b0b0" opacity="0.6"/>

  <!-- Small flower top left -->
  <g transform="translate(24, 12)">
    <circle cx="0" cy="-3.5" r="2.2" fill="#f9c8d0"/>
    <circle cx="3" cy="-2" r="2.2" fill="#f9c8d0"/>
    <circle cx="3" cy="1.5" r="2.2" fill="#f9c8d0"/>
    <circle cx="0" cy="3" r="2.2" fill="#f9c8d0"/>
    <circle cx="-3" cy="1.5" r="2.2" fill="#f9c8d0"/>
    <circle cx="-3" cy="-2" r="2.2" fill="#f9c8d0"/>
    <circle cx="0" cy="0" r="2.5" fill="#f5e0b0"/>
  </g>
</svg>
